# xmcd
#
# Track frame offsets:
#	150
#	21472
#	50216
#	93754
#	118546
#	148079
#	174383
#	195308
#	233611
#
# Disc length: 3368 seconds
#
# Revision: 0
# Processed by: cddbd v1.5.1PL0 Copyright (c) Steve Scherf et al.
# Submitted via: dBpowerAMP V4.0
#
DISCID=730d2609
DTITLE=Measured Chaos - LIVE
DYEAR=2003
DGENRE=Blues
TTITLE0=Spreadin' the News (Not Preachin' the Blues)
TTITLE1=Can't Judge a Book By the Cover
TTITLE2=Six Days of Sinnin'
TTITLE3=Night Ridin'
TTITLE4=Hurt Somebody
TTITLE5=Crosscut Saw
TTITLE6=Comin' Home
TTITLE7=The Thrill Is Gone
TTITLE8=Oh Well
EXTD=Great blues live music, pure energy!
EXTT0=
EXTT1=
EXTT2=
EXTT3=
EXTT4=
EXTT5=
EXTT6=
EXTT7=
EXTT8=
PLAYORDER=
